# xmcd
#
# Track frame offsets:
#	150
#	22372
#	40224
#	54900
#	76579
#	96052
#	119768
#	139218
#	160049
#	192482
#	204874
#	222056
#
# Disc length: 3225 seconds
#
# Revision: 0
# Processed by: cddbd v1.5.1PL0 Copyright (c) Steve Scherf et al.
# Submitted via: dBpowerAMP V4.0
#
DISCID=a10c970c
DTITLE=Stephens and John - #1
DYEAR=2004
DGENRE=Easy Listening
TTITLE0=Stephens and John - Patience
TTITLE1=Stephens and John - Wish You Were Here
TTITLE2=Stephens and John - Man Who Sold The World
TTITLE3=Stephens and John - The Scientist
TTITLE4=Stephens and John - Yellow
TTITLE5=Stephens and John - Rush Of Blood To The Head
TTITLE6=Stephens and John - Warning Sign
TTITLE7=Stephens and John - Tuesdays Gone
TTITLE8=Stephens and John - Stairway To Heaven
TTITLE9=Stephens and John - Better Man
TTITLE10=Stephens and John - Take It Easy
TTITLE11=Stephens and John - When You Say Nothing At All
EXTD=
EXTT0=
EXTT1=
EXTT2=
EXTT3=
EXTT4=
EXTT5=
EXTT6=
EXTT7=
EXTT8=
EXTT9=
EXTT10=
EXTT11=
PLAYORDER=
